<svg width="2320" height="494" viewBox="0 0 2320 494" fill="none" xmlns="http://www.w3.org/2000/svg">
<path d="M846.166 344.245C856.581 360.469 865.077 365.845 882.453 367.812V384.036H796.775L716.474 258.568H696.411V340.789C696.411 362.773 702.219 365.893 726.89 367.812V384.036H597.582V367.812C622.301 365.893 628.061 362.773 628.061 340.789V157.051C628.061 134.684 623.021 131.948 597.582 130.028V113.805H730.778C811.079 113.805 857.781 129.644 857.781 185.226C857.781 227.321 831.142 247.384 787.128 254.296L846.166 344.245ZM707.978 140.06C701.019 140.06 696.411 144.716 696.411 151.627V232.313H729.626C763.993 232.313 784.44 220.745 784.44 185.226C784.44 149.324 763.993 140.06 730.778 140.06H707.978Z" fill="black"/>
<path d="M941.531 294.858C941.531 340.408 955.451 363.975 989.386 363.975C1011.75 363.975 1032.63 348.52 1046.12 321.113L1067.34 333.064C1050.73 367.047 1026.44 389.799 982.042 389.799C918.348 389.799 880.525 350.056 880.525 294.858C880.525 240.044 919.116 200.301 975.85 200.301C1031.43 200.301 1061.91 232.748 1061.91 284.826H941.867C941.531 288.282 941.531 291.738 941.531 294.858ZM1005.99 260.107C1005.99 237.356 994.426 223.436 977.05 223.436C955.835 223.436 946.571 235.772 943.067 260.107H1005.99Z" fill="black"/>
<path d="M1137.23 389.028C1105.6 389.028 1085.11 371.269 1085.11 345.013C1085.11 299.079 1142.99 283.623 1198.19 273.592V255.448C1198.19 231.497 1194.73 223.001 1177.74 223.001C1163.05 223.001 1154.99 230.729 1149.18 248.872C1143.76 265.096 1132.96 272.056 1119.09 272.056C1106.37 272.056 1097.11 264.328 1097.11 248.104C1097.11 219.545 1133.39 200.25 1183.98 200.25C1223.34 200.25 1257.71 214.938 1257.71 258.136V347.317C1257.71 357.733 1261.55 362.005 1268.12 362.005C1270.81 362.005 1274.7 361.621 1279.31 359.317V378.996C1268.51 385.572 1256.94 388.644 1239.56 388.644C1219.5 388.644 1203.66 382.836 1199.44 364.693C1183.17 377.076 1161.18 389.028 1137.23 389.028ZM1198.24 296.007C1166.99 302.199 1146.11 311.462 1146.11 332.678C1146.11 346.981 1155.76 353.509 1167.33 353.509C1178.89 353.509 1188.93 348.853 1198.19 342.325V296.007H1198.24Z" fill="black"/>
<path d="M1465.78 107.998H1487.76V350.822C1487.76 362.39 1491.6 365.894 1509.36 367.814V384.037C1481.96 384.037 1455.32 385.573 1428.29 389.845V371.702C1416.73 383.269 1400.12 389.845 1378.52 389.845C1330.28 389.845 1296.3 352.79 1296.3 294.904C1296.3 237.402 1330.28 200.347 1378.52 200.347C1400.12 200.347 1416.73 207.307 1428.29 218.491V167.132C1428.29 159.02 1425.61 155.565 1418.65 155.565H1407.08V140.493L1465.78 107.998ZM1428.29 243.882C1421.33 233.082 1410.92 227.658 1397.82 227.658C1369.26 227.658 1357.3 249.258 1357.3 294.808C1357.3 340.359 1369.26 361.958 1397.82 361.958C1410.92 361.958 1421.38 356.918 1428.29 346.118V243.882Z" fill="black"/>
<path d="M1630.61 383.988H1588.51L1537.92 249.256C1532.12 232.649 1528.66 224.153 1513.97 222.233V206.01H1615.87V222.233C1597.35 224.153 1593.89 229.193 1601.19 249.256L1626.67 317.99L1652.93 246.952C1647.12 232.265 1642.51 224.201 1632.1 222.233V206.01H1732.46V222.233C1713.93 224.153 1709.28 228.809 1716.62 249.256L1741.73 317.174L1767.21 249.256C1774.56 229.193 1767.21 224.153 1749.45 222.233V206.01H1820.88V222.233C1807.39 224.153 1801.96 231.497 1795.39 249.256L1745.61 383.988H1703.9L1666.46 284.007L1630.61 383.988Z" fill="black"/>
<path d="M1825.91 367.812C1843.28 365.892 1847.51 362.388 1847.51 350.82V259.335C1847.51 251.223 1844.82 247.768 1837.86 247.768H1825.91V232.696L1884.95 200.249H1906.54V350.772C1906.54 362.34 1910.38 365.844 1928.14 367.764V383.987H1825.86V367.812H1825.91ZM1912.78 144.283C1912.78 160.122 1900.07 175.914 1878.42 175.914C1856.05 175.914 1844.05 160.074 1844.05 144.283C1844.05 128.059 1856 111.836 1878.42 111.836C1900.02 111.884 1912.78 128.059 1912.78 144.283Z" fill="black"/>
<path d="M2115.81 326.102C2115.81 366.613 2080.68 389.796 2035.89 389.796C2012.33 389.796 1988.04 381.3 1976.04 373.188L1971.43 383.988H1956.74L1942.82 320.678L1955.93 317.222C1975.99 350.053 2007.29 366.997 2033.93 366.997C2049.77 366.997 2061.72 359.653 2061.72 346.165C2061.72 331.094 2042.81 324.95 2019.24 317.99C1987.99 308.343 1948.97 295.623 1948.97 257.368C1948.97 223.769 1982.18 200.25 2023.46 200.25C2049.33 200.25 2064.36 207.978 2075.97 216.09L2080.58 206.058H2094.88L2106.45 262.408L2092.15 266.632C2075.54 237.305 2050.44 221.849 2029.61 221.849C2014.53 221.849 2006.42 229.193 2006.42 239.609C2006.42 253.528 2023.41 259.288 2045.4 265.864C2081.06 277.096 2115.81 289.047 2115.81 326.102Z" fill="black"/>
<path d="M2193.82 294.858C2193.82 340.408 2207.74 363.975 2241.67 363.975C2264.04 363.975 2284.92 348.52 2298.41 321.113L2319.62 333.064C2303.02 367.047 2278.73 389.799 2234.33 389.799C2170.64 389.799 2132.81 350.056 2132.81 294.858C2132.81 240.044 2171.41 200.301 2228.14 200.301C2283.72 200.301 2314.2 232.748 2314.2 284.826H2194.16C2193.82 288.282 2193.82 291.738 2193.82 294.858ZM2258.28 260.107C2258.28 237.356 2246.71 223.436 2229.34 223.436C2208.12 223.436 2198.86 235.772 2195.36 260.107H2258.28Z" fill="black"/>
<path d="M10 484V10H484V484H10Z" stroke="black" stroke-width="20" stroke-miterlimit="10"/>
<path d="M357.879 353.562C368.295 370.889 376.79 376.649 394.166 378.713V396.04H308.441L228.139 262.029H208.076V349.866C208.076 373.385 213.884 376.649 238.603 378.713V396.04H109.199V378.713C133.918 376.649 139.726 373.337 139.726 349.866V153.6C139.726 129.697 134.686 126.817 109.199 124.753V107.426H242.395C322.696 107.426 364.647 124.321 364.647 183.695C364.647 228.622 342.808 250.077 298.793 257.469L357.879 353.562ZM219.644 135.505C212.684 135.505 208.076 140.449 208.076 147.888V234.046H241.291C275.658 234.046 296.105 221.662 296.105 183.743C296.105 145.393 275.658 135.505 242.443 135.505H219.644Z" fill="black"/>
<path d="M309.691 117.748H184.799V236.976H309.691V117.748Z" fill="black"/>
<path d="M293.999 138.338C287.183 150.865 297.694 209.904 297.694 209.904C297.838 213.023 295.727 215.759 292.655 216.431C292.655 216.431 228.289 216.719 207.025 234.383" fill="#F4F9F9"/>
</svg>
